# xmcd CD database file
#
# Track frame offsets:
#	150
#	19783
#	35080
#	54199
#	73171
#	93674
#	110164
#	156429
#	176838
#	188595
#
# Disc length: 2632 seconds
#
# Revision: 5
# Processed by: cddbd v1.5.1PL0 Copyright (c) Steve Scherf et al.
# Submitted via: CDex 1.51
#
DISCID=8c0a460a
DTITLE=Baron - Ship Oars and Drift
DYEAR=2004
DGENRE=Acoustic
TTITLE0=River Ride
TTITLE1=Stilt
TTITLE2=Umbrella
TTITLE3=To Take Flight
TTITLE4=Key Ring
TTITLE5=Daybreak At Central
TTITLE6=Jack On The Sill
TTITLE7=All It Takes
TTITLE8=Veil #9
TTITLE9=Reprise
EXTD=YEAR: 2004
EXTT0=
EXTT1=
EXTT2=
EXTT3=
EXTT4=
EXTT5=
EXTT6=
EXTT7=
EXTT8=
EXTT9=
PLAYORDER=
